<svg aria-hidden="true" style="position: absolute; width: 0; height: 0; overflow: hidden;" version="1.1" xmlns="http://www.w3.org/2000/svg" xmlns:xlink="http://www.w3.org/1999/xlink">
<defs>
<symbol id="star1" viewBox="0 0 32 32">
<path d="M32 12.408l-11.056-1.607-4.944-10.018-4.944 10.018-11.056 1.607 8 7.798-1.889 11.011 9.889-5.199 9.889 5.199-1.889-11.011 8-7.798zM16 23.547l-6.983 3.671 1.334-7.776-5.65-5.507 7.808-1.134 3.492-7.075 3.492 7.075 7.807 1.134-5.65 5.507 1.334 7.776-6.983-3.671z"></path>
</symbol>
<symbol id="star2" viewBox="0 0 32 32">
<path d="M32 12.408l-11.056-1.607-4.944-10.018-4.944 10.018-11.056 1.607 8 7.798-1.889 11.011 9.889-5.199 9.889 5.199-1.889-11.011 8-7.798z"></path>
</symbol>
<symbol id="exit" viewBox="0 0 32 32">
<path d="M24 20v-4h-10v-4h10v-4l6 6zM22 18v8h-10v6l-12-6v-26h22v10h-2v-8h-16l8 4v18h8v-6z"></path>
</symbol>
<symbol id="coments" viewBox="0 0 16 16">
<path d="M13.3221 11.894C13.1117 12.1049 13.0064 12.3988 13.0348 12.6954C13.0984 13.3601 13.245 14.0519 13.4332 14.6945C12.0383 14.3721 11.1864 13.9981 10.7992 13.8019C10.5794 13.6905 10.3262 13.6642 10.0882 13.728C9.43034 13.9044 8.72924 14 8 14C4.0044 14 1 11.1925 1 8C1 4.80754 4.0044 2 8 2C11.9956 2 15 4.80754 15 8C15 9.46809 14.3827 10.8304 13.3221 11.894ZM13.8151 15.7989C13.8218 15.8003 13.8286 15.8016 13.8353 15.8029C13.9272 15.821 14.0208 15.8388 14.1162 15.8563C14.25 15.8808 14.3874 15.9047 14.5283 15.9277C14.7273 15.9603 14.8796 15.7521 14.801 15.5664C14.7497 15.4451 14.699 15.3179 14.6497 15.1861C14.6184 15.1023 14.5876 15.0167 14.5574 14.9294C14.5561 14.9256 14.5548 14.9219 14.5535 14.9181C14.3058 14.1984 14.104 13.3711 14.0302 12.6001C15.2569 11.3699 16 9.76087 16 8C16 4.13401 12.4183 1 8 1C3.58172 1 0 4.13401 0 8C0 11.866 3.58172 15 8 15C8.81676 15 9.60492 14.8929 10.3472 14.6939C10.8666 14.9571 11.9857 15.4363 13.8151 15.7989Z"/>
</symbol>
<symbol id="dots" viewBox="0 0 16 16">
<path d="M3 9.5C2.17157 9.5 1.5 8.82843 1.5 8C1.5 7.17157 2.17157 6.5 3 6.5C3.82843 6.5 4.5 7.17157 4.5 8C4.5 8.82843 3.82843 9.5 3 9.5ZM8 9.5C7.17157 9.5 6.5 8.82843 6.5 8C6.5 7.17157 7.17157 6.5 8 6.5C8.82843 6.5 9.5 7.17157 9.5 8C9.5 8.82843 8.82843 9.5 8 9.5ZM13 9.5C12.1716 9.5 11.5 8.82843 11.5 8C11.5 7.17157 12.1716 6.5 13 6.5C13.8284 6.5 14.5 7.17157 14.5 8C14.5 8.82843 13.8284 9.5 13 9.5Z"/>
</symbol>
<symbol id="bell" viewBox="0 0 16 16">
<path d="M8 16C9.10457 16 10 15.1046 10 14H6C6 15.1046 6.89543 16 8 16Z"/>
<path d="M8 1.91825L7.20281 2.07925C5.37552 2.44829 4.00002 4.06463 4.00002 6C4.00002 6.62782 3.86566 8.19725 3.54116 9.74216C3.38006 10.5091 3.16454 11.3076 2.87809 12H13.1219C12.8355 11.3076 12.62 10.5091 12.4589 9.74216C12.1344 8.19724 12 6.62782 12 6C12 4.06462 10.6245 2.44827 8.7972 2.07924L8 1.91825ZM14.2193 12C14.4426 12.4474 14.7015 12.801 15 13H1C1.29853 12.801 1.55745 12.4474 1.7807 12C2.67922 10.1994 3.00002 6.87916 3.00002 6C3.00002 3.57934 4.7202 1.56045 7.00484 1.09904C7.00164 1.06646 7 1.03342 7 1C7 0.447715 7.44772 0 8 0C8.55228 0 9 0.447715 9 1C9 1.03342 8.99836 1.06646 8.99516 1.09903C11.2798 1.56042 13 3.57932 13 6C13 6.87916 13.3208 10.1994 14.2193 12Z"/>
</symbol>
<symbol id="person" viewBox="0 0 16 16">
<path d="M8 8C9.65685 8 11 6.65685 11 5C11 3.34315 9.65685 2 8 2C6.34315 2 5 3.34315 5 5C5 6.65685 6.34315 8 8 8ZM10 5C10 6.10457 9.10457 7 8 7C6.89543 7 6 6.10457 6 5C6 3.89543 6.89543 3 8 3C9.10457 3 10 3.89543 10 5Z"/>
<path d="M14 13C14 14 13 14 13 14H3C3 14 2 14 2 13C2 12 3 9 8 9C13 9 14 12 14 13ZM13 12.9965C12.9986 12.7497 12.8462 12.0104 12.1679 11.3321C11.5156 10.6798 10.2891 10 7.99999 10C5.71088 10 4.48435 10.6798 3.8321 11.3321C3.15375 12.0104 3.00142 12.7497 3 12.9965H13Z"/>
</symbol>
<symbol id="settings" viewBox="0 0 16 16">
<path d="M8.00004 4.75421C6.20745 4.75421 4.75427 6.20739 4.75427 7.99997C4.75427 9.79256 6.20745 11.2457 8.00004 11.2457C9.79262 11.2457 11.2458 9.79256 11.2458 7.99997C11.2458 6.20739 9.79262 4.75421 8.00004 4.75421ZM5.75427 7.99997C5.75427 6.75967 6.75973 5.75421 8.00004 5.75421C9.24034 5.75421 10.2458 6.75967 10.2458 7.99997C10.2458 9.24027 9.24034 10.2457 8.00004 10.2457C6.75973 10.2457 5.75427 9.24027 5.75427 7.99997Z"/>
<path d="M9.79647 1.34338C9.26853 -0.447793 6.73147 -0.447791 6.20353 1.34338L6.10968 1.66179C5.95246 2.19519 5.34321 2.44755 4.85487 2.18155L4.56336 2.02276C2.9235 1.12953 1.12953 2.9235 2.02276 4.56336L2.18155 4.85487C2.44755 5.34321 2.19519 5.95246 1.66179 6.10968L1.34338 6.20353C-0.447793 6.73147 -0.447791 9.26853 1.34338 9.79647L1.66179 9.89032C2.19519 10.0475 2.44755 10.6568 2.18155 11.1451L2.02276 11.4366C1.12953 13.0765 2.92349 14.8705 4.56335 13.9772L4.85487 13.8184C5.34321 13.5524 5.95246 13.8048 6.10968 14.3382L6.20353 14.6566C6.73147 16.4478 9.26853 16.4478 9.79647 14.6566L9.89032 14.3382C10.0475 13.8048 10.6568 13.5524 11.1451 13.8184L11.4366 13.9772C13.0765 14.8705 14.8705 13.0765 13.9772 11.4366L13.8184 11.1451C13.5524 10.6568 13.8048 10.0475 14.3382 9.89032L14.6566 9.79647C16.4478 9.26853 16.4478 6.73147 14.6566 6.20353L14.3382 6.10968C13.8048 5.95246 13.5524 5.34321 13.8184 4.85487L13.9772 4.56335C14.8705 2.92349 13.0765 1.12953 11.4366 2.02276L11.1451 2.18155C10.6568 2.44755 10.0475 2.19519 9.89032 1.66179L9.79647 1.34338ZM7.16273 1.6261C7.40879 0.7913 8.59121 0.791301 8.83727 1.6261L8.93112 1.94451C9.26845 3.08899 10.5757 3.63046 11.6235 3.05972L11.915 2.90094C12.6793 2.48463 13.5154 3.32074 13.0991 4.08501L12.9403 4.37653C12.3695 5.42433 12.911 6.73155 14.0555 7.06888L14.3739 7.16273C15.2087 7.40879 15.2087 8.59121 14.3739 8.83727L14.0555 8.93112C12.911 9.26845 12.3695 10.5757 12.9403 11.6235L13.0991 11.915C13.5154 12.6793 12.6793 13.5154 11.915 13.0991L11.6235 12.9403C10.5757 12.3695 9.26845 12.911 8.93112 14.0555L8.83727 14.3739C8.59121 15.2087 7.40879 15.2087 7.16273 14.3739L7.06888 14.0555C6.73155 12.911 5.42433 12.3695 4.37653 12.9403L4.08501 13.0991C3.32074 13.5154 2.48463 12.6793 2.90093 11.915L3.05972 11.6235C3.63046 10.5757 3.089 9.26845 1.94452 8.93112L1.6261 8.83727C0.7913 8.59121 0.791301 7.40879 1.6261 7.16273L1.94451 7.06888C3.08899 6.73155 3.63046 5.42433 3.05972 4.37653L2.90093 4.08501C2.48463 3.32073 3.32074 2.48463 4.08501 2.90093L4.37653 3.05972C5.42432 3.63046 6.73155 3.089 7.06888 1.94452L7.16273 1.6261Z"/>
</symbol>
<symbol id="close" viewBox="0 0 32 32">
<path d="M32 3.223l-3.223-3.223-12.777 12.777-12.777-12.777-3.223 3.223 12.777 12.777-12.777 12.777 3.223 3.223 12.777-12.777 12.777 12.777 3.223-3.223-12.777-12.777 12.777-12.777z"></path>
</symbol>
<symbol id="search" viewBox="0 0 32 32">
<path d="M31.008 27.231l-7.58-6.447c-0.784-0.705-1.622-1.029-2.299-0.998 1.789-2.096 2.87-4.815 2.87-7.787 0-6.627-5.373-12-12-12s-12 5.373-12 12 5.373 12 12 12c2.972 0 5.691-1.081 7.787-2.87-0.031 0.677 0.293 1.515 0.998 2.299l6.447 7.58c1.104 1.226 2.907 1.33 4.007 0.23s0.997-2.903-0.23-4.007zM12 20c-4.418 0-8-3.582-8-8s3.582-8 8-8 8 3.582 8 8-3.582 8-8 8z"></path>
</symbol>
<symbol id="list" viewBox="0 0 16 16">
<path fill-rule="evenodd" clip-rule="evenodd" d="M2.5 11.5C2.5 11.2239 2.72386 11 3 11H13C13.2761 11 13.5 11.2239 13.5 11.5C13.5 11.7761 13.2761 12 13 12H3C2.72386 12 2.5 11.7761 2.5 11.5Z"/>
<path fill-rule="evenodd" clip-rule="evenodd" d="M2.5 7.5C2.5 7.22386 2.72386 7 3 7H13C13.2761 7 13.5 7.22386 13.5 7.5C13.5 7.77614 13.2761 8 13 8H3C2.72386 8 2.5 7.77614 2.5 7.5Z"/>
<path fill-rule="evenodd" clip-rule="evenodd" d="M2.5 3.5C2.5 3.22386 2.72386 3 3 3H13C13.2761 3 13.5 3.22386 13.5 3.5C13.5 3.77614 13.2761 4 13 4H3C2.72386 4 2.5 3.77614 2.5 3.5Z"/>
</symbol>
<symbol id="edit" viewBox="0 0 16 16">
<path d="M12.1464 0.146447C12.3417 -0.0488155 12.6583 -0.0488155 12.8536 0.146447L15.8536 3.14645C16.0488 3.34171 16.0488 3.65829 15.8536 3.85355L5.85355 13.8536C5.80567 13.9014 5.74857 13.9391 5.68569 13.9642L0.685695 15.9642C0.499986 16.0385 0.287877 15.995 0.146446 15.8536C0.00501463 15.7121 -0.0385224 15.5 0.035761 15.3143L2.03576 10.3143C2.06091 10.2514 2.09857 10.1943 2.14645 10.1464L12.1464 0.146447ZM11.2071 2.5L13.5 4.79289L14.7929 3.5L12.5 1.20711L11.2071 2.5ZM12.7929 5.5L10.5 3.20711L4 9.70711V10H4.5C4.77614 10 5 10.2239 5 10.5V11H5.5C5.77614 11 6 11.2239 6 11.5V12H6.29289L12.7929 5.5ZM3.03165 10.6755L2.92612 10.781L1.39753 14.6025L5.21901 13.0739L5.32454 12.9683C5.13495 12.8973 5 12.7144 5 12.5V12H4.5C4.22386 12 4 11.7761 4 11.5V11H3.5C3.28559 11 3.10271 10.865 3.03165 10.6755Z"/>
</symbol>
<symbol id="plus" viewBox="0 0 16 16">
<path fill-rule="evenodd" clip-rule="evenodd" d="M8 2C8.27614 2 8.5 2.22386 8.5 2.5V7.5H13.5C13.7761 7.5 14 7.72386 14 8C14 8.27614 13.7761 8.5 13.5 8.5H8.5V13.5C8.5 13.7761 8.27614 14 8 14C7.72386 14 7.5 13.7761 7.5 13.5V8.5H2.5C2.22386 8.5 2 8.27614 2 8C2 7.72386 2.22386 7.5 2.5 7.5H7.5V2.5C7.5 2.22386 7.72386 2 8 2Z"/>
</symbol>
</defs>
</svg>
